<svg xmlns="http://www.w3.org/2000/svg" viewBox="0 8.859999656677246 169.07000732421875 37.0099983215332" data-asc="0.9052734375" width="169.07000732421875" height="37.0099983215332"><defs/><g fill="#f3f2f2"><g transform="translate(0, 0)"><path d="M17.94 31.23L17.94 27.03L33.11 27.00L33.11 40.28Q29.61 43.07 25.90 44.47Q22.19 45.87 18.29 45.87Q13.01 45.87 8.70 43.62Q4.39 41.36 2.20 37.08Q0 32.81 0 27.54Q0 22.31 2.19 17.79Q4.37 13.26 8.47 11.06Q12.57 8.86 17.92 8.86Q21.80 8.86 24.94 10.12Q28.08 11.38 29.86 13.62Q31.64 15.87 32.57 19.48L28.30 20.65Q27.49 17.92 26.29 16.36Q25.10 14.79 22.88 13.85Q20.65 12.92 17.94 12.92Q14.70 12.92 12.33 13.90Q9.96 14.89 8.51 16.50Q7.06 18.12 6.25 20.04Q4.88 23.36 4.88 27.25Q4.88 32.03 6.53 35.25Q8.18 38.48 11.33 40.04Q14.48 41.60 18.02 41.60Q21.09 41.60 24.02 40.42Q26.95 39.23 28.47 37.89L28.47 31.23L17.94 31.23ZM56.52 45.26L56.52 41.46Q53.49 45.85 48.29 45.85Q46.00 45.85 44.01 44.97Q42.02 44.09 41.05 42.76Q40.09 41.43 39.70 39.50Q39.43 38.21 39.43 35.40L39.43 19.34L43.82 19.34L43.82 33.72Q43.82 37.16 44.09 38.35Q44.51 40.09 45.85 41.08Q47.19 42.07 49.17 42.07Q51.15 42.07 52.88 41.05Q54.61 40.04 55.33 38.29Q56.05 36.55 56.05 33.23L56.05 19.34L60.45 19.34L60.45 45.26L56.52 45.26ZM67.33 45.26L67.33 19.34L71.29 19.34L71.29 23.02Q74.15 18.75 79.54 18.75Q81.88 18.75 83.85 19.59Q85.82 20.43 86.79 21.80Q87.77 23.17 88.16 25.05Q88.40 26.27 88.40 29.32L88.40 45.26L84.01 45.26L84.01 29.49Q84.01 26.81 83.50 25.48Q82.98 24.15 81.68 23.35Q80.37 22.56 78.61 22.56Q75.81 22.56 73.77 24.34Q71.73 26.12 71.73 31.10L71.73 45.26L67.33 45.26ZM112.89 36.91L117.43 37.48Q116.36 41.46 113.45 43.65Q110.55 45.85 106.03 45.85Q100.34 45.85 97.01 42.35Q93.68 38.84 93.68 32.52Q93.68 25.98 97.05 22.36Q100.42 18.75 105.79 18.75Q110.99 18.75 114.28 22.29Q117.58 25.83 117.58 32.25Q117.58 32.64 117.55 33.42L98.22 33.42Q98.46 37.70 100.63 39.97Q102.81 42.24 106.05 42.24Q108.47 42.24 110.18 40.97Q111.89 39.70 112.89 36.91M98.46 29.81L112.94 29.81Q112.65 26.54 111.28 24.90Q109.18 22.36 105.83 22.36Q102.81 22.36 100.74 24.39Q98.68 26.42 98.46 29.81ZM121.19 37.52L125.54 36.84Q125.90 39.45 127.58 40.84Q129.25 42.24 132.25 42.24Q135.28 42.24 136.74 41.00Q138.21 39.77 138.21 38.11Q138.21 36.62 136.91 35.77Q136.01 35.18 132.42 34.28Q127.59 33.06 125.72 32.17Q123.85 31.27 122.89 29.70Q121.92 28.13 121.92 26.22Q121.92 24.49 122.72 23.01Q123.51 21.53 124.88 20.56Q125.90 19.80 127.67 19.27Q129.44 18.75 131.47 18.75Q134.52 18.75 136.83 19.63Q139.14 20.51 140.23 22.01Q141.33 23.51 141.75 26.03L137.45 26.61Q137.16 24.61 135.75 23.49Q134.35 22.36 131.79 22.36Q128.76 22.36 127.47 23.36Q126.17 24.37 126.17 25.71Q126.17 26.56 126.71 27.25Q127.25 27.95 128.39 28.42Q129.05 28.66 132.28 29.54Q136.94 30.79 138.78 31.58Q140.63 32.37 141.67 33.89Q142.72 35.40 142.72 37.65Q142.72 39.84 141.44 41.78Q140.16 43.73 137.74 44.79Q135.33 45.85 132.28 45.85Q127.22 45.85 124.57 43.75Q121.92 41.65 121.19 37.52ZM147.95 45.26L147.95 9.47L152.34 9.47L152.34 22.31Q155.42 18.75 160.11 18.75Q162.99 18.75 165.11 19.89Q167.24 21.02 168.15 23.02Q169.07 25.02 169.07 28.83L169.07 45.26L164.67 45.26L164.67 28.83Q164.67 25.54 163.24 24.04Q161.82 22.53 159.20 22.53Q157.25 22.53 155.53 23.55Q153.81 24.56 153.08 26.29Q152.34 28.03 152.34 31.08L152.34 45.26L147.95 45.26Z"/></g></g></svg>